<svg width="120" height="32" viewBox="0 0 120 32" fill="none" xmlns="http://www.w3.org/2000/svg">
  <defs>
    <!-- Main body gradient -->
    <linearGradient id="bodyGradient" x1="0%" y1="0%" x2="100%" y2="100%">
      <stop offset="0%" style="stop-color:#3b82f6" />
      <stop offset="30%" style="stop-color:#1e40af" />
      <stop offset="70%" style="stop-color:#1e3a8a" />
      <stop offset="100%" style="stop-color:#1e293b" />
    </linearGradient>
    
    <!-- Nose cone gradient -->
    <radialGradient id="noseGradient" cx="50%" cy="30%" r="70%">
      <stop offset="0%" style="stop-color:#f8fafc" />
      <stop offset="50%" style="stop-color:#e2e8f0" />
      <stop offset="100%" style="stop-color:#94a3b8" />
    </radialGradient>
    
    <!-- Fin gradients -->
    <linearGradient id="finGradient" x1="0%" y1="0%" x2="100%" y2="0%">
      <stop offset="0%" style="stop-color:#dc2626" />
      <stop offset="100%" style="stop-color:#991b1b" />
    </linearGradient>
    
    <!-- Flame gradient -->
    <linearGradient id="flameGradient" x1="0%" y1="0%" x2="0%" y2="100%">
      <stop offset="0%" style="stop-color:#fbbf24" />
      <stop offset="30%" style="stop-color:#f59e0b" />
      <stop offset="60%" style="stop-color:#ea580c" />
      <stop offset="100%" style="stop-color:#dc2626" />
    </linearGradient>
    
    <!-- Window reflection -->
    <linearGradient id="windowGradient" x1="0%" y1="0%" x2="100%" y2="100%">
      <stop offset="0%" style="stop-color:#60a5fa;stop-opacity:0.8" />
      <stop offset="100%" style="stop-color:#1e40af;stop-opacity:0.3" />
    </linearGradient>
    
    <!-- Shadow -->
    <filter id="dropShadow" x="-50%" y="-50%" width="200%" height="200%">
      <feGaussianBlur in="SourceAlpha" stdDeviation="1"/>
      <feOffset dx="1" dy="1" result="offset"/>
      <feComponentTransfer>
        <feFuncA type="linear" slope="0.3"/>
      </feComponentTransfer>
      <feMerge> 
        <feMergeNode/>
        <feMergeNode in="SourceGraphic"/> 
      </feMerge>
    </filter>
  </defs>
  
  <g transform="rotate(18 16 16)" filter="url(#dropShadow)">
    <!-- Main rocket body with panels -->
    <path d="M12 8 L12 20 Q12 22 14 23 L16 24 L18 23 Q20 22 20 20 L20 8 Q20 6 18 5 L16 4 L14 5 Q12 6 12 8 Z" fill="url(#bodyGradient)"/>
    
    <!-- Body panel lines -->
    <line x1="13" y1="9" x2="13" y2="21" stroke="#1e40af" stroke-width="0.3" opacity="0.6"/>
    <line x1="19" y1="9" x2="19" y2="21" stroke="#1e40af" stroke-width="0.3" opacity="0.6"/>
    <line x1="12" y1="14" x2="20" y2="14" stroke="#1e40af" stroke-width="0.3" opacity="0.4"/>
    
    <!-- Nose cone -->
    <circle cx="16" cy="6" r="3.5" fill="url(#noseGradient)" stroke="#cbd5e1" stroke-width="0.2"/>
    
    <!-- Nose tip highlight -->
    <ellipse cx="15.5" cy="5" rx="1" ry="0.5" fill="#ffffff" opacity="0.7"/>
    
    <!-- Side fins with detail -->
    <path d="M9 13 L12 15 L12 19 L10 20 L9 17 Z" fill="url(#finGradient)" stroke="#7f1d1d" stroke-width="0.2"/>
    <path d="M23 13 L20 15 L20 19 L22 20 L23 17 Z" fill="url(#finGradient)" stroke="#7f1d1d" stroke-width="0.2"/>
    
    <!-- Fin detail lines -->
    <line x1="10" y1="14" x2="11" y2="18" stroke="#991b1b" stroke-width="0.2" opacity="0.7"/>
    <line x1="22" y1="14" x2="21" y2="18" stroke="#991b1b" stroke-width="0.2" opacity="0.7"/>
    
    <!-- Main window -->
    <circle cx="16" cy="10" r="2" fill="url(#windowGradient)" stroke="#1e40af" stroke-width="0.2"/>
    
    <!-- Window reflection -->
    <ellipse cx="15.2" cy="9.2" rx="0.8" ry="0.5" fill="#ffffff" opacity="0.6"/>
    
    <!-- Secondary windows -->
    <circle cx="16" cy="16" r="0.8" fill="url(#windowGradient)" stroke="#1e40af" stroke-width="0.1" opacity="0.7"/>
    <circle cx="16" cy="19" r="0.6" fill="url(#windowGradient)" stroke="#1e40af" stroke-width="0.1" opacity="0.5"/>
    
    <!-- Exhaust nozzle -->
    <ellipse cx="16" cy="23.5" rx="2.5" ry="1" fill="#374151" stroke="#1f2937" stroke-width="0.2"/>
    
    <!-- Complex flame exhaust -->
    <path d="M14 24 Q16 28 16 30 Q16 28 18 24 Q17 25 16 27 Q15 25 14 24" fill="url(#flameGradient)" opacity="0.9"/>
    <path d="M14.5 24 Q16 27 16 29 Q16 27 17.5 24 Q16.8 25 16 26.5 Q15.2 25 14.5 24" fill="#fbbf24" opacity="0.8"/>
    <path d="M15 24 Q16 26 16 28 Q16 26 17 24 Q16.5 24.5 16 25.5 Q15.5 24.5 15 24" fill="#ffffff" opacity="0.6"/>
    
    <!-- Thruster details -->
    <circle cx="15" cy="23.2" r="0.3" fill="#6b7280"/>
    <circle cx="17" cy="23.2" r="0.3" fill="#6b7280"/>
    <circle cx="16" cy="22.8" r="0.2" fill="#9ca3af"/>
  </g>
  
  <!-- Text "Rocket" -->
  <text x="36" y="22" font-family="system-ui, -apple-system, sans-serif" font-size="18" font-weight="600" fill="currentColor">Rocket</text>
</svg>
